<svg width="956" height="1015" viewBox="0 0 956 1015" fill="none" xmlns="http://www.w3.org/2000/svg">
<g filter="url(#filter0_dd_1104_1390)">
<path d="M684.408 94.6505C758.619 139.527 822.136 197.795 868.231 271.272C915.126 346.026 946.704 429.336 949.699 517.541C952.832 609.782 931.482 701.074 885.547 781.116C836.947 865.8 772.592 946.694 682.226 983.614C592.093 1020.44 490.926 1003.05 396.072 981.092C304.947 960.001 213.856 927.771 149.13 860.226C86.1811 794.536 66.7623 702.336 44.4191 614.126C22.1506 526.21 -13.8047 433.041 19.5674 348.715C52.5451 265.385 149.506 233.317 217.99 175.535C288.262 116.247 336.772 20.3729 427.349 4.66532C518.645 -11.167 605.112 46.6994 684.408 94.6505Z" fill="#EEF2FF"/>
</g>
<defs>
<filter id="filter0_dd_1104_1390" x="0" y="0" width="956" height="1015" filterUnits="userSpaceOnUse" color-interpolation-filters="sRGB">
<feFlood flood-opacity="0" result="BackgroundImageFix"/>
<feColorMatrix in="SourceAlpha" type="matrix" values="0 0 0 0 0 0 0 0 0 0 0 0 0 0 0 0 0 0 127 0" result="hardAlpha"/>
<feOffset dy="4"/>
<feGaussianBlur stdDeviation="3"/>
<feColorMatrix type="matrix" values="0 0 0 0 0 0 0 0 0 0 0 0 0 0 0 0 0 0 0.1 0"/>
<feBlend mode="normal" in2="BackgroundImageFix" result="effect1_dropShadow_1104_1390"/>
<feColorMatrix in="SourceAlpha" type="matrix" values="0 0 0 0 0 0 0 0 0 0 0 0 0 0 0 0 0 0 127 0" result="hardAlpha"/>
<feOffset dy="2"/>
<feGaussianBlur stdDeviation="2"/>
<feColorMatrix type="matrix" values="0 0 0 0 0 0 0 0 0 0 0 0 0 0 0 0 0 0 0.06 0"/>
<feBlend mode="normal" in2="effect1_dropShadow_1104_1390" result="effect2_dropShadow_1104_1390"/>
<feBlend mode="normal" in="SourceGraphic" in2="effect2_dropShadow_1104_1390" result="shape"/>
</filter>
</defs>
</svg>
