<?xml version="1.0" standalone="no"?>
<!DOCTYPE svg PUBLIC "-//W3C//DTD SVG 20010904//EN"
 "http://www.w3.org/TR/2001/REC-SVG-20010904/DTD/svg10.dtd">
<svg version="1.0" xmlns="http://www.w3.org/2000/svg"
 width="700.000000pt" height="700.000000pt" viewBox="0 0 700.000000 700.000000"
 preserveAspectRatio="xMidYMid meet">
<metadata>
Created by potrace 1.14, written by Peter Selinger 2001-2017
</metadata>
<g transform="translate(0.000000,700.000000) scale(0.100000,-0.100000)"
fill="#000000" stroke="none">
<path d="M0 3500 l0 -3500 3500 0 3500 0 0 3500 0 3500 -3500 0 -3500 0 0
-3500z m2611 2780 c379 -24 615 -150 748 -400 57 -107 76 -197 76 -365 -1
-130 -4 -159 -24 -215 -45 -129 -148 -261 -254 -327 l-48 -30 64 -41 c123 -79
240 -231 286 -368 81 -243 32 -537 -123 -741 -101 -133 -288 -250 -466 -293
-153 -36 -277 -41 -938 -38 l-634 3 -29 33 -29 32 0 1341 c0 1481 -4 1389 63
1408 44 13 1112 13 1308 1z m2102 -675 c162 -34 320 -158 390 -305 236 -501
-289 -1009 -777 -752 -131 69 -240 202 -282 347 -26 89 -24 231 5 320 92 286
374 452 664 390z m167 -2075 c315 -64 577 -246 704 -489 68 -130 86 -253 44
-298 -21 -23 -24 -23 -253 -23 -216 0 -234 1 -257 20 -14 10 -31 34 -38 52
-32 88 -47 112 -95 157 -112 106 -238 146 -445 138 -217 -7 -339 -61 -404
-177 -28 -50 -31 -63 -31 -145 0 -107 18 -150 92 -214 88 -78 248 -139 623
-236 524 -137 742 -260 851 -480 50 -101 69 -191 69 -328 0 -137 -20 -227 -75
-343 -102 -212 -317 -371 -606 -448 -167 -44 -232 -51 -469 -51 -193 1 -241 4
-338 23 -301 61 -536 193 -668 378 -58 81 -101 175 -119 260 -22 102 -20 140
10 169 l24 25 222 0 222 0 34 -26 c20 -15 45 -50 62 -88 92 -204 340 -306 673
-276 240 21 362 82 428 212 60 120 33 263 -64 343 -87 71 -220 120 -641 235
-272 74 -415 126 -542 197 -160 90 -258 195 -312 334 -43 108 -54 191 -48 338
5 129 23 204 69 296 129 254 442 433 818 469 109 10 357 -3 460 -24z m-2275
-845 c179 -60 331 -226 374 -409 17 -70 15 -204 -4 -278 -53 -205 -229 -369
-445 -414 -278 -59 -571 122 -656 405 -84 278 81 593 362 692 110 39 260 40
369 4z"/>
<path d="M1800 5496 l0 -366 348 0 c209 0 372 4 408 11 88 16 156 53 212 113
62 69 87 140 85 251 -2 167 -75 270 -234 326 -62 22 -79 23 -441 27 l-378 4 0
-366z"/>
<path d="M1800 4299 l0 -411 388 5 c408 5 435 7 528 55 60 31 123 99 158 172
29 61 31 72 31 180 0 110 -1 118 -33 182 -41 84 -120 158 -199 188 -89 33
-174 39 -535 40 l-338 0 0 -411z"/>
</g>
</svg>
